# xmcd
#
# Track frame offsets:
#	150
#	9304
#	26488
#	44106
#	57045
#	71403
#	84188
#	96018
#	114596
#	133862
#	151067
#	169646
#	187798
#	200460
#	212197
#	235075
#	269116
#
# Disc length: 3794 seconds
#
# Revision: 0
# Processed by: cddbd v1.5.2PL0 Copyright (c) Steve Scherf et al.
# Submitted via: dBpowerAMP V4.0
#
DISCID=df0ed011
DTITLE=cat power - jukebox 
DYEAR=1900
DGENRE=
TTITLE0=New York
TTITLE1=Ramblin
TTITLE2=Metal Heart
TTITLE3=Silver Stallion
TTITLE4=Aretha Sing One For Me
TTITLE5=Lost Someone
TTITLE6=Lord Help The Poor
TTITLE7=I Believe In You
TTITLE8=Song To Bobby
TTITLE9=Don't Explain
TTITLE10=Woman Left Lonely
TTITLE11=Bive
TTITLE12=Feel
TTITLE13=Naked
TTITLE14=Breath Less
TTITLE15=Angelitos Negros
TTITLE16=She's Got You
EXTD=
EXTT0=
EXTT1=
EXTT2=
EXTT3=
EXTT4=
EXTT5=
EXTT6=
EXTT7=
EXTT8=
EXTT9=
EXTT10=
EXTT11=
EXTT12=
EXTT13=
EXTT14=
EXTT15=
EXTT16=
PLAYORDER=
